<svg width="500" height="500" viewBox="0 0 500 500" fill="none" xmlns="http://www.w3.org/2000/svg">
<rect width="500" height="500" rx="50" fill="#DC052D"/>
<g clip-path="url(#clip0_355_79)">
<path d="M109.297 229.6C109.297 237.6 112.897 242.4 120.497 244.4C122.097 252.8 126.897 256.8 135.297 256.8C139.297 256.8 141.297 255.6 141.297 253.6C141.297 251.6 136.897 249.6 135.297 245.2C136.897 234.4 144.897 221.6 158.897 207.6C172.897 193.6 189.697 185.6 209.297 184C198.497 202 192.897 218.8 192.897 234C192.897 248.8 197.697 259.2 209.297 265.6C220.897 272 226.097 273.6 243.297 278C259.697 282.4 264.897 283.6 276.097 289.6C287.297 295.6 291.697 305.2 291.697 319.2C291.697 336.4 284.497 351.2 270.097 362.8C255.697 374.4 238.897 380.4 220.097 380.4C194.497 380.4 182.097 367.2 182.097 349.6C182.097 334.8 190.897 318 203.297 312.8C205.697 311.6 206.897 310 206.897 307.2C206.897 298 200.897 292.4 192.497 292.4C183.297 292.4 174.897 297.6 167.297 308C159.697 318.8 155.697 330.4 155.697 342.8C155.697 364 168.897 381.2 198.097 386C206.897 390.4 217.697 392.4 230.897 392.4C254.497 392.4 276.497 385.6 296.097 372.4C315.697 359.2 325.297 341.6 325.297 320.4C325.297 304 319.297 292.4 306.097 284.8C292.897 277.2 285.297 275.2 267.297 270.8C254.897 267.6 252.097 266.8 242.897 263.2C231.297 258.4 224.497 252 224.497 240.4C224.497 227.6 232.097 210.8 246.897 189.6C262.897 195.6 278.897 206 294.897 220.4C298.497 223.6 300.497 224.4 301.697 222.4C303.297 220.4 302.497 217.6 299.297 214.4C284.897 199.6 270.097 188 254.497 179.6C280.497 147.6 315.697 122 346.497 120C357.297 125.2 362.497 134.8 362.497 149.2C362.497 164.4 357.297 180.4 347.297 197.2C336.897 214 326.097 223.6 314.897 226.4C314.497 226.4 313.697 226.4 312.897 226.8C310.097 227.2 309.297 228.8 310.097 230.8C312.897 238.8 322.097 244.4 332.097 244.4C346.097 244.4 359.697 235.2 372.097 216.4C384.497 197.6 390.497 178.4 390.497 158.8C390.497 132.8 377.297 114.4 348.097 111.6C346.097 108.8 339.697 107.6 328.897 107.6C287.297 107.6 247.297 132.8 220.497 167.6C212.897 166.4 206.497 165.6 200.497 165.6C176.097 165.6 154.897 172.8 136.897 187.6C118.497 202.4 109.297 216.4 109.297 229.6Z" fill="#F1EDE7"/>
</g>
<defs>
<clipPath id="clip0_355_79">
<rect width="282" height="286" fill="white" transform="translate(109 107)"/>
</clipPath>
</defs>
</svg>
