<?xml version="1.0" standalone="no"?>
<!DOCTYPE svg PUBLIC "-//W3C//DTD SVG 20010904//EN"
 "http://www.w3.org/TR/2001/REC-SVG-20010904/DTD/svg10.dtd">
<svg version="1.0" xmlns="http://www.w3.org/2000/svg"
 width="700.000000pt" height="700.000000pt" viewBox="0 0 700.000000 700.000000"
 preserveAspectRatio="xMidYMid meet">
<metadata>
Created by potrace 1.14, written by Peter Selinger 2001-2017
</metadata>
<g transform="translate(0.000000,700.000000) scale(0.100000,-0.100000)"
fill="#000000" stroke="none">
<path d="M4750 5994 c-14 -2 -65 -9 -115 -15 -429 -52 -908 -293 -1310 -656
-93 -85 -168 -163 -326 -346 l-26 -30 -79 12 c-43 7 -151 15 -239 18 -536 17
-1001 -179 -1389 -588 -188 -197 -279 -392 -263 -564 10 -108 58 -175 150
-210 37 -14 46 -23 55 -53 21 -69 66 -127 118 -153 65 -32 190 -35 223 -5 30
27 27 41 -23 94 -64 70 -67 79 -50 148 40 158 185 375 384 573 255 256 516
387 868 435 24 4 42 3 40 -1 -1 -5 -42 -87 -90 -183 -136 -274 -177 -417 -185
-645 -6 -171 8 -258 55 -359 57 -121 139 -194 313 -281 129 -65 252 -107 514
-175 276 -71 401 -113 534 -177 189 -92 280 -200 318 -376 21 -100 13 -313
-16 -421 -101 -379 -481 -697 -954 -798 -149 -31 -406 -31 -531 0 -279 70
-429 252 -427 520 1 261 142 517 344 624 75 40 91 64 89 133 -4 163 -134 260
-313 235 -187 -27 -374 -198 -495 -454 -67 -142 -85 -219 -91 -382 -7 -172 9
-255 69 -377 32 -64 59 -100 127 -167 128 -126 241 -185 461 -240 63 -16 147
-41 185 -55 292 -111 804 -93 1175 41 184 66 404 181 540 283 183 137 322 321
393 516 58 163 73 416 32 570 -38 146 -134 283 -256 366 -73 49 -253 139 -349
174 -41 14 -196 58 -345 96 -428 110 -603 180 -706 280 -182 177 -133 493 145
942 114 184 139 217 161 211 11 -3 88 -38 170 -79 217 -106 388 -221 623 -419
101 -85 134 -100 160 -74 20 20 14 71 -13 111 -40 58 -286 278 -441 396 -78
58 -194 137 -258 175 -64 38 -116 71 -116 74 0 26 303 340 450 467 284 245
566 415 836 505 133 44 304 77 345 67 49 -12 144 -92 187 -157 69 -103 87
-177 87 -360 0 -230 -41 -391 -160 -639 -106 -217 -253 -425 -378 -534 -117
-101 -192 -143 -317 -175 -58 -16 -65 -20 -68 -44 -7 -63 74 -165 170 -214
271 -138 594 -10 860 339 268 351 412 775 395 1157 -11 230 -73 399 -193 529
-117 126 -247 194 -445 233 -63 12 -125 30 -139 40 -14 9 -45 22 -70 28 -46
11 -354 22 -400 14z"/>
</g>
</svg>
